<svg xmlns="http://www.w3.org/2000/svg" width="20" height="20"><path fill-rule="evenodd" fill="#F0F4F3" d="M10 0c5.523 0 10 4.477 10 10s-4.477 10-10 10S0 15.523 0 10 4.477 0 10 0z"/><path fill-rule="evenodd" fill="#01C063" d="M9.855 19.556c-5.361 0-9.708-4.34-9.708-9.695S4.494.165 9.855.165c5.362 0 9.709 4.341 9.709 9.696 0 5.355-4.347 9.695-9.709 9.695zm0-17.345c-4.23 0-7.66 3.426-7.66 7.65 0 4.226 3.43 7.65 7.66 7.65 4.232 0 7.661-3.424 7.661-7.65 0-4.224-3.429-7.65-7.661-7.65zm4.32 6.24l-1.996 1.989c-.011.012-.023.022-.034.032l-.195.193-.014.015-.015.015-1.738 1.735-.016.016-.655.655-.028.026a.826.826 0 0 1-1.083-.014c-.009-.007-.018-.017-.028-.027l-.017-.016-2.284-2.282a1.094 1.094 0 0 1 .025-1.53 1.097 1.097 0 0 1 1.558 0l1.305 1.303 3.644-3.641.024-.023a1.102 1.102 0 0 1 1.502.052 1.096 1.096 0 0 1 .045 1.502z"/></svg>