<svg xmlns="http://www.w3.org/2000/svg" width="16" height="16"><path fill-rule="evenodd" d="M13 9a2.994 2.994 0 0 1-2.5-1.345 2.994 2.994 0 0 1-5 0A3 3 0 0 1 0 6s.416-6 3-6h10c2.584 0 3 6 3 6a3 3 0 0 1-3 3zM4.5 2.105c-.478-.241-1.09-.098-1.366.32l-1 3.277c-.276.418-.112.952.366 1.193.478.241 1.09.098 1.366-.32l1-3.278c.276-.417.112-.951-.366-1.192zM9 3a1 1 0 0 0-2 0v3a1 1 0 0 0 2 0V3zm4.866 2.702l-1-3.277c-.276-.418-.888-.561-1.366-.32-.478.241-.642.775-.366 1.192l1 3.278c.276.418.888.561 1.366.32.478-.241.642-.775.366-1.193zM4 13a1 1 0 0 0 1 1h6a1 1 0 0 0 1-1v-2h2v3a2 2 0 0 1-2 2H4a2 2 0 0 1-2-2v-3h2v2z"/></svg>