<svg xmlns="http://www.w3.org/2000/svg" width="14" height="14"><path fill-rule="evenodd" fill="#3E3D42" d="M.307 4.427l2.555 2.579a.836.836 0 0 0 1.192 0 .857.857 0 0 0 0-1.203L2.995 4.734c.869-.039 4.324.068 5.609 3.685a.849.849 0 1 0 1.6-.569C8.758 3.781 4.996 2.863 2.905 3.028l1.141-1.121a.856.856 0 0 0 0-1.204.837.837 0 0 0-1.191 0L.307 3.223a.856.856 0 0 0 0 1.204zm11.646-1.408v7.644c0 .469-.38.849-.849.849H2.611a.849.849 0 0 1-.849-.849V8.115H.064v3.397c0 .938.76 1.699 1.698 1.699h10.191a1.7 1.7 0 0 0 1.699-1.699V2.169c0-.938-.761-1.698-1.699-1.698H7.707v1.698h3.397a.85.85 0 0 1 .849.85z"/></svg>