<svg xmlns="http://www.w3.org/2000/svg" width="17" height="14"><path fill-rule="evenodd" fill="#303031" d="M16 9h-1v1a1 1 0 0 1-2 0V9h-1a1 1 0 0 1 0-2h1V6a1 1 0 0 1 2 0v1h1a1 1 0 0 1 0 2zm-2.466-5.953a2.438 2.438 0 0 0-.26-.316 2.455 2.455 0 0 0-1.747-.725c-.623 0-1.222.231-1.686.65L8.5 3.994 7.159 2.656a2.513 2.513 0 0 0-1.686-.65c-.66 0-1.28.258-1.748.725a2.48 2.48 0 0 0-.731 1.767c0 .668.259 1.295.725 1.761L8.5 10.994 9.655 9.85c.377.477.891.832 1.488 1.011.027.088.045.179.079.264l-2.747 2.749-6.189-6.192a4.5 4.5 0 0 1 0-6.364c1.703-1.703 4.422-1.74 6.189-.143 1.766-1.597 4.485-1.56 6.188.143a4.471 4.471 0 0 1 1.241 2.381A2.973 2.973 0 0 0 14 3c-.159 0-.313.023-.466.047z"/></svg>