<svg xmlns="http://www.w3.org/2000/svg" width="15" height="15"><path fill-rule="evenodd" fill="#3E3D42" d="M13.325 4.868l-.849 7.644a1.7 1.7 0 0 1-1.699 1.699H3.983a1.7 1.7 0 0 1-1.699-1.699l-.849-7.644a.849.849 0 1 1 0-1.699h3.397V1.471c0-.469.38-.85.85-.85h3.397a.85.85 0 0 1 .849.85v1.698h3.397a.85.85 0 0 1 0 1.699zM7.38 2.32a.849.849 0 0 0-.849.849h1.698a.849.849 0 0 0-.849-.849zm2.548 2.548H3.134l.849 6.795c0 .469.38.849.849.849h5.096c.469 0 .849-.38.849-.849l.849-6.795H9.928zm-.849 5.945a.85.85 0 0 1-.85-.849V7.416a.85.85 0 0 1 1.699 0v2.548c0 .469-.38.849-.849.849zm-3.397 0a.85.85 0 0 1-.85-.849V7.416a.85.85 0 0 1 1.699 0v2.548c0 .469-.38.849-.849.849z"/></svg>