<svg xmlns="http://www.w3.org/2000/svg" width="16" height="21"><path fill-rule="evenodd" fill="#404040" d="M14.657 14.63h-.001a1.252 1.252 0 1 1-2.108-1.355l.018-.028a5.014 5.014 0 0 0 .816-2.749 5.047 5.047 0 0 0-4.314-4.991l-.032-.005a.64.64 0 0 0-.705.636V7.32c0 .176-.144.32-.321.32a.313.313 0 0 1-.178-.056l-.001.002-1.98-1.483-1.854-1.389a.641.641 0 0 1-.204-.254.637.637 0 0 1 .165-.738l.076-.058L7.79.852l.065-.049.003-.002a.321.321 0 0 1 .473.281v1.253a.638.638 0 0 0 .62.639c3.884.315 6.938 3.563 6.938 7.524a7.504 7.504 0 0 1-1.232 4.132zM4.113 7.722a5.016 5.016 0 0 0-.834 2.776 5.048 5.048 0 0 0 4.315 4.991l.031.004a.64.64 0 0 0 .706-.636v-1.181a.318.318 0 0 1 .498-.264l.001-.002 1.981 1.483 1.853 1.389a.632.632 0 0 1 .257.512.633.633 0 0 1-.219.48l-.076.058-3.755 2.811-.065.049-.004.002a.319.319 0 0 1-.471-.281V18.66a.64.64 0 0 0-.62-.638c-3.885-.315-6.94-3.563-6.94-7.524 0-1.525.454-2.945 1.233-4.133l.001.001a1.253 1.253 0 1 1 2.108 1.356z"/></svg>