<svg xmlns="http://www.w3.org/2000/svg" width="21" height="21"><path fill-rule="evenodd" fill="#8EA2BD" d="M21 17.062l-6.264-1.392a7.865 7.865 0 0 1-6.861 4.017c-.464 0-.912-.059-1.354-.136L0 21l1.243-4.972A7.815 7.815 0 0 1 0 11.813a7.877 7.877 0 0 1 6.25-7.706C7.589 1.671 10.149 0 13.125 0A7.875 7.875 0 0 1 21 7.875a7.812 7.812 0 0 1-1.243 4.215L21 17.062zM2.625 11.826c0 .98.288 1.951.833 2.805l.606.952-.487 1.946 2.881-.64.512.089c.386.067.665.097.905.097a5.255 5.255 0 0 0 5.25-5.249 5.256 5.256 0 0 0-5.25-5.25 5.256 5.256 0 0 0-5.25 5.25zm10.5-9.188A5.223 5.223 0 0 0 9.5 4.107a7.877 7.877 0 0 1 6.25 7.706c0 .471-.049.93-.128 1.378l1.801.4-.487-1.945.607-.952a5.227 5.227 0 0 0 .832-2.806 5.256 5.256 0 0 0-5.25-5.25z"/></svg>