<svg xmlns="http://www.w3.org/2000/svg" width="16" height="16"><path fill-rule="evenodd" d="M16 11.5a3.5 3.5 0 0 1-3.5 3.5h-1.88.001c-.704.615-1.613 1-2.621 1H4a4 4 0 0 1-4-4c0-1.308.637-2.459 1.608-3.189A6.886 6.886 0 0 1 1 6c0-3.314 2.239-6 5-6 1.262 0 2.4.579 3.28 1.504C9.803 1.19 10.381 1 11 1c2.209 0 4 2.239 4 5 0 .945-.222 1.82-.587 2.574A3.493 3.493 0 0 1 16 11.5zM2 12a2 2 0 0 0 2 2h4a2 2 0 0 0 2-2c0-.61-.278-1.149-.709-1.516C8.41 11.416 7.267 12 6 12s-2.41-.584-3.291-1.516C2.279 10.851 2 11.39 2 12zM6 2C4.343 2 3 3.791 3 6s1.343 4 3 4 3-1.791 3-4-1.343-4-3-4zm3.893.277zM11 3c-.218 0-.424.065-.62.162.383.848.62 1.805.62 2.838 0 .722-.121 1.404-.321 2.041.004-.014.011-.027.015-.041h1.787C12.8 7.468 13 6.772 13 6c0-1.657-.895-3-2-3zm1.5 7h-1.055c-.032-.055-.078-.098-.113-.151.408.623.668 1.35.668 2.151 0 .347-.058.679-.141 1h.641a1.5 1.5 0 0 0 0-3zm-1.477 4.593l.031-.039-.031.039z"/></svg>