<svg xmlns="http://www.w3.org/2000/svg" width="18" height="16"><path fill-rule="evenodd" fill="#8EA2BD" d="M16.727 9.096l-4.197 4.178-.699.696a6.948 6.948 0 0 1-9.792 0 6.87 6.87 0 0 1 0-9.747l.7-.697 1.399 1.393-.7.696a4.908 4.908 0 0 0 0 6.962 4.96 4.96 0 0 0 6.994 0l.699-.696 4.197-4.177a.992.992 0 0 1 1.399 0 .981.981 0 0 1 0 1.392zm-6.994 1.393a2.979 2.979 0 0 1-4.197 0 2.945 2.945 0 0 1 0-4.178l1.399-1.392a.992.992 0 0 1 1.399 0 .981.981 0 0 1 0 1.392L6.935 7.704a.981.981 0 0 0 0 1.392.992.992 0 0 0 1.399 0l2.098-2.089a2.944 2.944 0 0 0 0-4.177 2.977 2.977 0 0 0-4.196 0L4.138 4.919 2.739 3.526l2.098-2.088a4.96 4.96 0 0 1 6.994 0 4.908 4.908 0 0 1 0 6.962l-2.098 2.089z"/></svg>