<svg xmlns="http://www.w3.org/2000/svg" width="22" height="22"><path fill-rule="evenodd" fill="#8EA2BD" d="M19.25 19.25h-4.125a2.75 2.75 0 0 1-2.75 2.75H2.75A2.75 2.75 0 0 1 0 19.25V5.5a2.75 2.75 0 0 1 2.75-2.75h4.125V5.5h-2.75c-.759 0-1.375.616-1.375 1.375v11c0 .759.616 1.375 1.375 1.375H11c.76 0 1.375-.616 1.375-1.375V11h-2.75a2.75 2.75 0 0 1-2.75-2.75v-5.5A2.75 2.75 0 0 1 9.625 0h4.125v2.75H7.896l7.229 7.229V16.5h2.75c.76 0 1.375-.616 1.375-1.375V8.25H16.5a2.75 2.75 0 0 1-2.75-2.75V0h1.021L22 7.229V16.5a2.75 2.75 0 0 1-2.75 2.75z"/></svg>