<svg xmlns="http://www.w3.org/2000/svg" width="17" height="16"><path fill-rule="evenodd" fill="#7ACB6B" d="M8.031 16a8 8 0 1 1 0-16 8 8 0 0 1 0 16zM7.969 2c-3.28 0-5.938 2.686-5.938 6s2.658 6 5.938 6c3.279 0 5.937-2.686 5.937-6s-2.658-6-5.937-6zm.078 9.937a3.985 3.985 0 0 1-3.985-3.984c0-.016.005-.031.005-.047h1.395c-.001.016-.005.031-.005.047a2.59 2.59 0 0 0 5.18 0c0-.016-.005-.031-.005-.047h1.394c.001.016.005.031.005.047 0 2.2-1.784 3.984-3.984 3.984zm1.851-5.734a1.101 1.101 0 1 1 0-2.202 1.101 1.101 0 0 1 0 2.202zm-3.734 0a1.102 1.102 0 1 1 0-2.204 1.102 1.102 0 0 1 0 2.204z"/></svg>