<svg xmlns="http://www.w3.org/2000/svg" width="17" height="16"><path fill-rule="evenodd" d="M14.031 16h-12c-1.104 0-2-.898-2-2.005v-8.99C.031 3.897.927 3 2.031 3h1V1c0-.552.449-1 1.003-1h7.994c.554 0 1.003.448 1.003 1v2h1c1.105 0 2 .897 2 2.005v8.99a2.002 2.002 0 0 1-2 2.005zm-12-4v.969a1 1 0 0 0 1 1h.69c.102.016.204.031.31.031h8c.106 0 .208-.015.31-.031H13a1 1 0 0 0 1-1v-.659c.016-.102.031-.204.031-.31V9.984h-4v.985h-4v-.985h-4V12zm7-2V9h-2v1h2zm1-8H6.062a1 1 0 0 0-1 1h5.969a1 1 0 0 0-1-1zm4 4.969c0-.107-.015-.209-.031-.31v-.69a1 1 0 0 0-1-1H3.031a1 1 0 0 0-1 1v3.015h4V8h4v.984h4V6.969z"/></svg>