<svg
 xmlns="http://www.w3.org/2000/svg"
 xmlns:xlink="http://www.w3.org/1999/xlink"
 width="22px" height="22px">
<path fill-rule="evenodd"  fill="rgb(142, 162, 189)"
 d="M19.250,19.250 L15.125,19.250 L15.125,19.250 C15.125,20.769 13.894,22.000 12.375,22.000 L2.750,22.000 C1.232,22.000 0.000,20.769 0.000,19.250 L0.000,5.500 C0.000,3.981 1.232,2.750 2.750,2.750 L6.875,2.750 L6.875,5.500 L4.125,5.500 C3.366,5.500 2.750,6.116 2.750,6.875 L2.750,17.875 C2.750,18.634 3.366,19.250 4.125,19.250 L11.000,19.250 C11.760,19.250 12.375,18.634 12.375,17.875 L12.375,11.000 L9.625,11.000 C8.107,11.000 6.875,9.769 6.875,8.250 L6.875,2.750 L6.875,2.750 C6.875,1.231 8.107,0.000 9.625,0.000 L13.750,0.000 L13.750,2.750 L9.625,2.750 L7.896,2.750 L15.125,9.979 L15.125,11.000 L15.125,16.500 L17.875,16.500 C18.635,16.500 19.250,15.884 19.250,15.125 L19.250,8.250 L16.500,8.250 C14.982,8.250 13.750,7.019 13.750,5.500 L13.750,0.000 L14.771,0.000 L22.000,7.229 L22.000,8.250 L22.000,16.500 C22.000,18.019 20.769,19.250 19.250,19.250 Z"/>
</svg>
