<svg
 xmlns="http://www.w3.org/2000/svg"
 xmlns:xlink="http://www.w3.org/1999/xlink"
 width="13px" height="16px">
<path fill-rule="evenodd"
 d="M11.000,16.000 L2.000,16.000 C0.896,16.000 0.000,15.105 0.000,14.000 L0.000,2.000 C0.000,0.895 0.896,0.000 2.000,0.000 L6.000,0.000 L6.000,0.000 L7.743,0.000 L13.000,5.257 L13.000,6.000 L13.000,7.000 L13.000,14.000 C13.000,15.105 12.105,16.000 11.000,16.000 ZM8.000,7.000 C6.896,7.000 6.000,6.104 6.000,5.000 L6.000,2.000 L3.000,2.000 C2.448,2.000 2.000,2.448 2.000,3.000 L2.000,13.000 C2.000,13.552 2.448,14.000 3.000,14.000 L10.000,14.000 C10.552,14.000 11.000,13.552 11.000,13.000 L11.000,7.000 L8.000,7.000 Z"/>
</svg>
