<svg
 xmlns="http://www.w3.org/2000/svg"
 xmlns:xlink="http://www.w3.org/1999/xlink"
 width="14px" height="14px">
<path fill-rule="evenodd"  fill="rgb(62, 61, 66)"
 d="M0.307,4.427 L2.862,7.006 C3.191,7.339 3.724,7.339 4.054,7.006 C4.383,6.674 4.383,6.135 4.054,5.803 L2.995,4.734 C3.864,4.695 7.319,4.802 8.604,8.419 C8.727,8.767 9.055,8.984 9.404,8.984 C9.499,8.984 9.594,8.968 9.689,8.935 C10.131,8.778 10.361,8.292 10.204,7.850 C8.758,3.781 4.996,2.863 2.905,3.028 L4.046,1.907 C4.376,1.574 4.376,1.036 4.046,0.703 C3.717,0.371 3.184,0.371 2.855,0.703 L0.307,3.223 C0.149,3.383 0.060,3.599 0.060,3.825 C0.060,4.051 0.149,4.267 0.307,4.427 ZM11.953,3.019 L11.953,10.663 C11.953,11.132 11.573,11.512 11.104,11.512 L2.611,11.512 C2.142,11.512 1.762,11.132 1.762,10.663 L1.762,8.115 L0.064,8.115 L0.064,11.512 C0.064,12.450 0.824,13.211 1.762,13.211 L11.953,13.211 C12.891,13.211 13.652,12.450 13.652,11.512 L13.652,2.169 C13.652,1.231 12.891,0.471 11.953,0.471 L7.707,0.471 L7.707,2.169 L11.104,2.169 C11.573,2.169 11.953,2.550 11.953,3.019 Z"/>
</svg>
