<svg
 xmlns="http://www.w3.org/2000/svg"
 xmlns:xlink="http://www.w3.org/1999/xlink"
 width="21px" height="21px">
<path fill-rule="evenodd"  fill="rgb(142, 162, 189)"
 d="M21.000,17.062 L14.736,15.670 C13.386,18.067 10.822,19.687 7.875,19.687 C7.411,19.687 6.963,19.628 6.521,19.551 L0.000,21.000 L1.243,16.028 C0.465,14.807 0.000,13.367 0.000,11.813 C0.000,8.020 2.681,4.856 6.250,4.107 C7.589,1.671 10.149,0.000 13.125,0.000 C17.474,0.000 21.000,3.526 21.000,7.875 C21.000,9.430 20.535,10.869 19.757,12.090 L21.000,17.062 ZM2.625,11.826 C2.625,12.806 2.913,13.777 3.458,14.631 L4.064,15.583 L3.577,17.529 L6.458,16.889 L6.970,16.978 C7.356,17.045 7.635,17.075 7.875,17.075 C10.770,17.075 13.125,14.721 13.125,11.826 C13.125,8.931 10.770,6.576 7.875,6.576 C4.980,6.576 2.625,8.931 2.625,11.826 ZM13.125,2.638 C11.717,2.638 10.444,3.202 9.500,4.107 C13.069,4.856 15.750,8.021 15.750,11.813 C15.750,12.284 15.701,12.743 15.622,13.191 L17.423,13.591 L16.936,11.646 L17.543,10.694 C18.087,9.839 18.375,8.869 18.375,7.888 C18.375,4.993 16.020,2.638 13.125,2.638 Z"/>
</svg>
