<svg
 xmlns="http://www.w3.org/2000/svg"
 xmlns:xlink="http://www.w3.org/1999/xlink"
 width="17px" height="16px">
<path fill-rule="evenodd" 
 d="M14.031,16.000 L2.031,16.000 C0.927,16.000 0.031,15.104 0.031,14.000 L0.031,2.031 C0.031,0.927 0.927,0.031 2.031,0.031 L14.031,0.031 C15.136,0.031 16.031,0.927 16.031,2.031 L16.031,14.000 C16.031,15.104 15.136,16.000 14.031,16.000 ZM14.031,3.000 C14.031,2.448 13.583,2.000 13.031,2.000 L3.031,2.000 C2.479,2.000 2.031,2.448 2.031,3.000 L2.031,13.000 C2.031,13.552 2.479,14.000 3.031,14.000 L13.031,14.000 C13.583,14.000 14.031,13.552 14.031,13.000 L14.031,3.000 ZM10.031,5.937 L12.031,5.937 L12.031,12.000 L10.031,12.000 L10.031,5.937 ZM7.031,3.969 L9.031,3.969 L9.031,12.000 L7.031,12.000 L7.031,3.969 ZM4.031,8.000 L6.031,8.000 L6.031,12.000 L4.031,12.000 L4.031,8.000 Z"/>
</svg>
