<svg
 xmlns="http://www.w3.org/2000/svg"
 xmlns:xlink="http://www.w3.org/1999/xlink"
 width="15px" height="15px">
<path fill-rule="evenodd"  fill="rgb(62, 61, 66)"
 d="M13.325,4.868 L12.476,12.512 C12.476,13.450 11.715,14.211 10.777,14.211 L3.983,14.211 C3.045,14.211 2.284,13.450 2.284,12.512 L1.435,4.868 C0.966,4.868 0.586,4.488 0.586,4.019 C0.586,3.550 0.966,3.169 1.435,3.169 L4.832,3.169 L4.832,1.471 C4.832,1.002 5.212,0.621 5.682,0.621 L9.079,0.621 C9.548,0.621 9.928,1.002 9.928,1.471 L9.928,3.169 L13.325,3.169 C13.794,3.169 14.174,3.550 14.174,4.019 C14.174,4.488 13.794,4.868 13.325,4.868 ZM7.380,2.320 C6.911,2.320 6.531,2.700 6.531,3.169 L8.229,3.169 C8.229,2.700 7.849,2.320 7.380,2.320 ZM9.928,4.868 L4.832,4.868 L3.134,4.868 L3.983,11.663 C3.983,12.132 4.363,12.512 4.832,12.512 L9.928,12.512 C10.397,12.512 10.777,12.132 10.777,11.663 L11.626,4.868 L9.928,4.868 ZM9.079,10.813 C8.609,10.813 8.229,10.433 8.229,9.964 L8.229,7.416 C8.229,6.947 8.609,6.567 9.079,6.567 C9.548,6.567 9.928,6.947 9.928,7.416 L9.928,9.964 C9.928,10.433 9.548,10.813 9.079,10.813 ZM5.682,10.813 C5.212,10.813 4.832,10.433 4.832,9.964 L4.832,7.416 C4.832,6.947 5.212,6.567 5.682,6.567 C6.151,6.567 6.531,6.947 6.531,7.416 L6.531,9.964 C6.531,10.433 6.151,10.813 5.682,10.813 Z"/>
</svg>
