<svg
 xmlns="http://www.w3.org/2000/svg"
 xmlns:xlink="http://www.w3.org/1999/xlink"
 width="16px" height="15px">
<path fill-rule="evenodd" 
 d="M14.500,15.000 L13.000,11.432 L13.000,5.000 L16.000,5.000 L16.000,11.432 L14.500,15.000 ZM13.000,1.500 C13.000,0.672 13.672,-0.000 14.500,-0.000 C15.328,-0.000 16.000,0.672 16.000,1.500 L16.000,3.000 L13.000,3.000 L13.000,1.500 ZM9.000,15.000 L2.000,15.000 C0.895,15.000 0.000,14.105 0.000,13.000 L0.000,2.000 C0.000,0.895 0.895,0.000 2.000,0.000 L6.000,0.000 L6.000,0.094 L10.922,6.000 L11.000,6.000 L11.000,7.000 L11.000,13.000 C11.000,14.105 10.105,15.000 9.000,15.000 ZM9.000,7.000 L7.000,7.000 C5.896,7.000 5.000,6.105 5.000,5.000 L5.000,2.006 L4.996,2.000 L3.000,2.000 C2.448,2.000 2.000,2.448 2.000,3.000 L2.000,12.000 C2.000,12.552 2.448,13.000 3.000,13.000 L8.000,13.000 C8.552,13.000 9.000,12.552 9.000,12.000 L9.000,7.000 Z"/>
</svg>
