<svg
 xmlns="http://www.w3.org/2000/svg"
 xmlns:xlink="http://www.w3.org/1999/xlink"
 width="16px" height="21px">
<path fill-rule="evenodd"  fill="rgb(64, 64, 64)"
 d="M14.657,14.630 L14.656,14.630 C14.278,15.209 13.500,15.371 12.921,14.993 C12.347,14.618 12.182,13.852 12.548,13.275 C12.555,13.265 12.560,13.256 12.566,13.247 C13.082,12.456 13.382,11.512 13.382,10.498 C13.382,7.961 11.508,5.863 9.068,5.507 C9.057,5.505 9.046,5.504 9.036,5.502 C9.014,5.500 8.992,5.499 8.970,5.499 C8.617,5.499 8.331,5.786 8.331,6.138 L8.331,7.320 C8.331,7.496 8.187,7.640 8.010,7.640 C7.944,7.640 7.883,7.619 7.832,7.584 L7.831,7.586 L5.851,6.103 L3.997,4.714 C3.909,4.649 3.838,4.561 3.793,4.460 C3.759,4.381 3.740,4.294 3.740,4.202 C3.740,4.010 3.825,3.839 3.958,3.722 L4.034,3.664 L7.790,0.852 L7.855,0.803 C7.855,0.802 7.857,0.802 7.858,0.801 C7.904,0.777 7.956,0.762 8.010,0.762 C8.187,0.762 8.331,0.906 8.331,1.082 L8.331,2.335 C8.331,2.662 8.575,2.930 8.891,2.969 C8.910,2.972 8.930,2.974 8.951,2.974 C12.835,3.289 15.889,6.537 15.889,10.498 C15.889,12.024 15.436,13.443 14.657,14.630 ZM4.113,7.722 C4.107,7.730 4.100,7.740 4.094,7.750 C3.579,8.540 3.279,9.484 3.279,10.498 C3.279,13.034 5.153,15.133 7.594,15.489 C7.603,15.490 7.614,15.492 7.625,15.493 C7.646,15.495 7.669,15.496 7.690,15.496 C8.045,15.496 8.331,15.210 8.331,14.857 L8.331,13.676 C8.331,13.499 8.473,13.357 8.650,13.357 C8.716,13.357 8.778,13.376 8.829,13.412 L8.830,13.410 L10.811,14.893 L12.664,16.282 C12.752,16.347 12.822,16.434 12.867,16.536 C12.902,16.615 12.921,16.701 12.921,16.794 C12.921,16.985 12.837,17.157 12.702,17.274 L12.626,17.332 L8.871,20.143 L8.806,20.192 C8.805,20.193 8.804,20.193 8.802,20.194 C8.757,20.218 8.706,20.233 8.650,20.233 C8.473,20.233 8.331,20.090 8.331,19.913 L8.331,18.660 C8.331,18.334 8.087,18.066 7.770,18.026 C7.751,18.024 7.731,18.022 7.711,18.022 C3.826,17.707 0.771,14.459 0.771,10.498 C0.771,8.973 1.225,7.553 2.004,6.365 L2.005,6.366 C2.384,5.787 3.161,5.624 3.741,6.002 C4.315,6.379 4.480,7.144 4.113,7.722 Z"/>
</svg>
