<svg
 xmlns="http://www.w3.org/2000/svg"
 xmlns:xlink="http://www.w3.org/1999/xlink"
 width="15px" height="16px">
<path fill-rule="evenodd"  fill="rgb(48, 48, 49)"
 d="M6.861,14.869 L13.929,16.000 L12.666,12.859 C14.098,11.499 15.000,9.592 15.000,7.467 C15.000,3.343 11.642,0.000 7.500,0.000 C3.358,0.000 -0.000,3.343 -0.000,7.467 C-0.000,11.373 3.023,14.541 6.861,14.869 ZM7.500,1.985 C10.532,1.985 13.000,4.453 13.000,7.486 C13.000,8.991 12.391,10.401 11.285,11.456 L10.209,12.483 L10.960,14.015 L7.194,12.949 L7.033,12.929 C4.163,12.684 2.000,10.343 2.000,7.486 C2.000,4.453 4.467,1.985 7.500,1.985 Z"/>
</svg>
