<svg
 xmlns="http://www.w3.org/2000/svg"
 xmlns:xlink="http://www.w3.org/1999/xlink"
 width="17px" height="16px">
<path fill-rule="evenodd"  fill="rgb(122, 203, 107)"
 d="M8.031,16.000 C3.613,16.000 0.031,12.418 0.031,8.000 C0.031,3.582 3.613,-0.000 8.031,-0.000 C12.449,-0.000 16.031,3.582 16.031,8.000 C16.031,12.418 12.449,16.000 8.031,16.000 ZM7.969,2.000 C4.689,2.000 2.031,4.686 2.031,8.000 C2.031,11.314 4.689,14.000 7.969,14.000 C11.248,14.000 13.906,11.314 13.906,8.000 C13.906,4.686 11.248,2.000 7.969,2.000 ZM8.047,11.937 C5.846,11.937 4.062,10.153 4.062,7.953 C4.062,7.937 4.067,7.922 4.067,7.906 L5.462,7.906 C5.461,7.922 5.457,7.937 5.457,7.953 C5.457,9.383 6.617,10.543 8.047,10.543 C9.477,10.543 10.637,9.383 10.637,7.953 C10.637,7.937 10.632,7.922 10.632,7.906 L12.026,7.906 C12.027,7.922 12.031,7.937 12.031,7.953 C12.031,10.153 10.247,11.937 8.047,11.937 ZM9.898,6.203 C9.290,6.203 8.797,5.710 8.797,5.102 C8.797,4.493 9.290,4.000 9.898,4.000 C10.507,4.000 11.000,4.493 11.000,5.102 C11.000,5.710 10.507,6.203 9.898,6.203 ZM6.164,6.203 C5.556,6.203 5.062,5.710 5.062,5.102 C5.062,4.493 5.556,4.000 6.164,4.000 C6.772,4.000 7.266,4.493 7.266,5.102 C7.266,5.710 6.772,6.203 6.164,6.203 Z"/>
</svg>
