<svg
 xmlns="http://www.w3.org/2000/svg"
 xmlns:xlink="http://www.w3.org/1999/xlink"
 width="17px" height="16px">
<path fill-rule="evenodd" 
 d="M14.031,16.000 L2.031,16.000 C0.927,16.000 0.031,15.104 0.031,14.000 L0.031,2.031 C0.031,0.927 0.927,0.031 2.031,0.031 L14.031,0.031 C15.125,0.031 16.011,0.910 16.028,2.000 L2.953,2.000 C2.409,2.000 1.969,2.441 1.969,2.984 C1.969,3.528 2.409,3.969 2.953,3.969 L16.031,3.969 L16.031,9.347 L16.031,10.653 L16.031,14.000 C16.031,15.104 15.136,16.000 14.031,16.000 ZM1.969,6.000 L1.969,10.000 L1.988,10.000 C1.984,10.032 1.969,10.060 1.969,10.094 L1.969,13.000 C1.969,13.552 2.416,14.000 2.969,14.000 L13.031,14.000 C13.583,14.000 14.031,13.552 14.031,13.000 L14.031,12.000 L11.000,12.000 C10.448,12.000 10.000,11.397 10.000,10.653 L10.000,9.347 C10.000,8.603 10.448,8.000 11.000,8.000 L14.031,8.000 L14.031,6.000 L1.969,6.000 ZM14.031,10.000 C14.031,9.448 13.583,9.000 13.031,9.000 C12.479,9.000 12.031,9.448 12.031,10.000 C12.031,10.552 12.479,11.000 13.031,11.000 C13.567,11.000 13.996,10.576 14.022,10.047 C14.017,10.032 14.014,10.016 14.012,10.000 L14.031,10.000 Z"/>
</svg>
