<svg
 xmlns="http://www.w3.org/2000/svg"
 xmlns:xlink="http://www.w3.org/1999/xlink"
 width="16px" height="16px">
<path fill-rule="evenodd"  fill="rgb(48, 48, 49)"
 d="M8.000,16.000 C3.582,16.000 0.000,12.418 0.000,8.000 C0.000,3.582 3.582,-0.000 8.000,-0.000 C12.418,-0.000 16.000,3.582 16.000,8.000 C16.000,12.418 12.418,16.000 8.000,16.000 ZM8.000,2.000 C4.686,2.000 2.000,4.686 2.000,8.000 C2.000,11.314 4.686,14.000 8.000,14.000 C11.314,14.000 14.000,11.314 14.000,8.000 C14.000,4.686 11.314,2.000 8.000,2.000 ZM11.000,9.000 L8.000,9.000 C7.448,9.000 7.000,8.552 7.000,8.000 L7.000,5.000 C7.000,4.448 7.448,4.000 8.000,4.000 C8.552,4.000 9.000,4.448 9.000,5.000 L9.000,7.000 L11.000,7.000 C11.552,7.000 12.000,7.448 12.000,8.000 C12.000,8.552 11.552,9.000 11.000,9.000 Z"/>
</svg>
