<svg
 xmlns="http://www.w3.org/2000/svg"
 xmlns:xlink="http://www.w3.org/1999/xlink"
 width="17px" height="16px">
<path fill-rule="evenodd"  fill="rgb(255, 255, 255)"
 d="M15.436,3.343 L14.738,4.039 L11.951,1.257 L12.648,0.562 C13.418,-0.206 14.666,-0.206 15.436,0.562 C16.206,1.330 16.206,2.575 15.436,3.343 ZM13.344,5.430 L9.859,8.905 L5.000,11.013 L7.070,6.124 L10.557,2.647 L13.344,5.430 ZM6.000,2.000 L3.000,2.000 C2.448,2.000 2.000,2.448 2.000,3.000 L2.000,13.000 C2.000,13.552 2.448,14.000 3.000,14.000 L13.000,14.000 C13.552,14.000 14.000,13.552 14.000,13.000 L14.000,9.000 C14.000,8.448 14.448,8.000 15.000,8.000 C15.552,8.000 16.000,8.448 16.000,9.000 L16.000,14.000 C16.000,15.105 15.105,16.000 14.000,16.000 L2.000,16.000 C0.896,16.000 -0.000,15.105 -0.000,14.000 L-0.000,2.000 C-0.000,0.895 0.896,-0.000 2.000,-0.000 L6.000,-0.000 C6.552,-0.000 7.000,0.448 7.000,1.000 C7.000,1.552 6.552,2.000 6.000,2.000 Z"/>
</svg>
