<svg
 xmlns="http://www.w3.org/2000/svg"
 xmlns:xlink="http://www.w3.org/1999/xlink"
 width="17px" height="14px">
<path fill-rule="evenodd"  fill="rgb(48, 48, 49)"
 d="M16.000,9.000 L15.000,9.000 L15.000,10.000 C15.000,10.552 14.552,11.000 14.000,11.000 C13.448,11.000 13.000,10.552 13.000,10.000 L13.000,9.000 L12.000,9.000 C11.448,9.000 11.000,8.552 11.000,8.000 C11.000,7.448 11.448,7.000 12.000,7.000 L13.000,7.000 L13.000,6.000 C13.000,5.448 13.448,5.000 14.000,5.000 C14.552,5.000 15.000,5.448 15.000,6.000 L15.000,7.000 L16.000,7.000 C16.552,7.000 17.000,7.448 17.000,8.000 C17.000,8.552 16.552,9.000 16.000,9.000 ZM13.534,3.047 C13.455,2.937 13.372,2.828 13.274,2.731 C12.807,2.264 12.187,2.006 11.527,2.006 C10.904,2.006 10.305,2.237 9.841,2.656 L8.500,3.994 L7.159,2.656 C6.695,2.237 6.096,2.006 5.473,2.006 C4.813,2.006 4.193,2.264 3.725,2.731 C3.253,3.203 2.994,3.830 2.994,4.498 C2.994,5.166 3.253,5.793 3.719,6.259 L8.500,10.994 L9.655,9.850 C10.032,10.327 10.546,10.682 11.143,10.861 C11.170,10.949 11.188,11.040 11.222,11.125 L8.475,13.874 L2.286,7.682 C0.529,5.925 0.529,3.075 2.286,1.318 C3.989,-0.385 6.708,-0.422 8.475,1.175 C10.241,-0.422 12.960,-0.385 14.663,1.318 C15.337,1.992 15.747,2.827 15.904,3.699 C15.385,3.269 14.727,3.000 14.000,3.000 C13.841,3.000 13.687,3.023 13.534,3.047 Z"/>
</svg>
