<svg
 xmlns="http://www.w3.org/2000/svg"
 xmlns:xlink="http://www.w3.org/1999/xlink"
 width="16px" height="16px">
<path fill-rule="evenodd" 
 d="M13.000,9.000 C11.955,9.000 11.037,8.465 10.500,7.655 C9.963,8.465 9.045,9.000 8.000,9.000 C6.955,9.000 6.037,8.465 5.500,7.655 C4.963,8.465 4.045,9.000 3.000,9.000 C1.343,9.000 -0.000,7.657 -0.000,6.000 C-0.000,6.000 0.416,-0.000 3.000,-0.000 C3.997,-0.000 8.803,-0.000 13.000,-0.000 C15.584,-0.000 16.000,6.000 16.000,6.000 C16.000,7.657 14.657,9.000 13.000,9.000 ZM4.500,2.105 C4.022,1.864 3.410,2.007 3.134,2.425 L2.134,5.702 C1.858,6.120 2.022,6.654 2.500,6.895 C2.978,7.136 3.590,6.993 3.866,6.575 L4.866,3.297 C5.142,2.880 4.978,2.346 4.500,2.105 ZM9.000,3.000 C9.000,2.448 8.552,2.000 8.000,2.000 C7.448,2.000 7.000,2.448 7.000,3.000 L7.000,6.000 C7.000,6.552 7.448,7.000 8.000,7.000 C8.552,7.000 9.000,6.552 9.000,6.000 L9.000,3.000 ZM13.866,5.702 L12.866,2.425 C12.590,2.007 11.978,1.864 11.500,2.105 C11.022,2.346 10.858,2.880 11.134,3.297 L12.134,6.575 C12.410,6.993 13.022,7.136 13.500,6.895 C13.978,6.654 14.142,6.120 13.866,5.702 ZM4.000,13.000 C4.000,13.552 4.448,14.000 5.000,14.000 L11.000,14.000 C11.552,14.000 12.000,13.552 12.000,13.000 L12.000,11.000 L14.000,11.000 L14.000,14.000 C14.000,15.104 13.105,16.000 12.000,16.000 L4.000,16.000 C2.895,16.000 2.000,15.104 2.000,14.000 L2.000,11.000 L4.000,11.000 L4.000,13.000 Z"/>
</svg>
