<svg
 xmlns="http://www.w3.org/2000/svg"
 xmlns:xlink="http://www.w3.org/1999/xlink"
 width="22px" height="22px">
<path fill-rule="evenodd"  stroke-width="2px" stroke="rgb(203, 208, 212)" fill-opacity="0" fill="rgb(203, 208, 212)"
 d="M11.000,2.999 C15.418,2.999 19.000,6.581 19.000,10.999 C19.000,15.418 15.418,19.000 11.000,19.000 C6.581,19.000 3.000,15.418 3.000,10.999 C3.000,6.581 6.581,2.999 11.000,2.999 Z"/>
<path fill-rule="evenodd"  fill="rgb(203, 208, 212)"
 d="M11.553,13.701 L13.890,10.054 C13.963,9.940 14.000,9.809 14.000,9.676 C14.000,9.567 13.975,9.458 13.924,9.358 C13.812,9.138 13.593,9.000 13.355,9.000 L8.681,9.000 C8.442,9.000 8.224,9.138 8.112,9.358 C8.000,9.579 8.013,9.847 8.146,10.054 L10.483,13.701 C10.603,13.887 10.803,14.000 11.018,14.000 C11.232,14.000 11.433,13.887 11.553,13.701 Z"/>
</svg>
