<svg
 xmlns="http://www.w3.org/2000/svg"
 xmlns:xlink="http://www.w3.org/1999/xlink"
 width="16px" height="16px">
<path fill-rule="evenodd"  fill="rgb(223, 230, 240)"
 d="M14.000,16.000 L2.000,16.000 C0.895,16.000 0.000,15.105 0.000,14.000 L0.000,2.000 C0.000,0.895 0.895,-0.000 2.000,-0.000 L14.000,-0.000 C15.105,-0.000 16.000,0.895 16.000,2.000 L16.000,14.000 C16.000,15.105 15.105,16.000 14.000,16.000 ZM2.000,13.000 C2.000,13.552 2.448,14.000 3.000,14.000 L9.000,14.000 L4.000,9.000 L2.000,11.000 L2.000,13.000 ZM14.000,3.000 C14.000,2.448 13.553,2.000 13.000,2.000 L3.000,2.000 C2.448,2.000 2.000,2.448 2.000,3.000 L2.000,8.000 L4.000,6.000 L9.000,11.000 L12.000,8.000 L14.000,10.000 L14.000,3.000 ZM14.000,13.000 L12.000,11.000 L10.500,12.500 L12.000,14.000 L13.000,14.000 C13.553,14.000 14.000,13.552 14.000,13.000 L14.000,13.000 ZM9.000,6.000 C8.448,6.000 8.000,5.552 8.000,5.000 C8.000,4.448 8.448,4.000 9.000,4.000 C9.552,4.000 10.000,4.448 10.000,5.000 C10.000,5.552 9.552,6.000 9.000,6.000 Z"/>
</svg>
