<svg
 xmlns="http://www.w3.org/2000/svg"
 xmlns:xlink="http://www.w3.org/1999/xlink"
 width="18px" height="16px">
<path fill-rule="evenodd"  fill="rgb(142, 162, 189)"
 d="M16.727,9.096 L12.530,13.274 L11.831,13.970 C9.127,16.661 4.743,16.661 2.039,13.970 C-0.665,11.278 -0.665,6.914 2.039,4.223 L2.739,3.526 L4.138,4.919 L3.438,5.615 C1.507,7.538 1.507,10.655 3.438,12.577 C5.369,14.500 8.501,14.500 10.432,12.577 L11.131,11.881 L11.131,11.881 L15.328,7.704 C15.714,7.319 16.340,7.319 16.727,7.704 C17.113,8.088 17.113,8.712 16.727,9.096 ZM9.733,10.489 L9.733,10.489 C8.574,11.642 6.695,11.642 5.536,10.489 C4.377,9.335 4.377,7.465 5.536,6.311 L6.935,4.919 C7.321,4.534 7.948,4.534 8.334,4.919 C8.720,5.303 8.720,5.927 8.334,6.311 L6.935,7.704 C6.549,8.088 6.549,8.712 6.935,9.096 C7.321,9.481 7.948,9.481 8.334,9.096 L10.432,7.007 C11.591,5.854 11.591,3.984 10.432,2.830 C9.273,1.677 7.395,1.677 6.236,2.830 L4.138,4.919 L2.739,3.526 L4.837,1.438 C6.768,-0.485 9.900,-0.485 11.831,1.438 C13.762,3.360 13.762,6.477 11.831,8.400 L9.733,10.489 Z"/>
</svg>
