<svg
 xmlns="http://www.w3.org/2000/svg"
 xmlns:xlink="http://www.w3.org/1999/xlink"
 width="13px" height="16px">
<path fill-rule="evenodd"
 d="M11.000,16.000 L2.000,16.000 C0.895,16.000 0.000,15.105 0.000,14.000 L0.000,2.000 C0.000,0.895 0.895,0.000 2.000,0.000 L5.000,0.000 L7.000,0.000 L7.000,0.086 L12.914,6.000 L13.000,6.000 L13.000,8.000 L13.000,14.000 C13.000,15.105 12.105,16.000 11.000,16.000 ZM7.000,2.914 L7.000,5.000 C7.000,5.552 7.448,6.000 8.000,6.000 L10.086,6.000 L7.000,2.914 ZM7.000,8.000 C5.896,8.000 5.000,7.105 5.000,6.000 L5.000,2.000 L3.000,2.000 C2.448,2.000 2.000,2.448 2.000,3.000 L2.000,13.000 C2.000,13.552 2.448,14.000 3.000,14.000 L10.000,14.000 C10.552,14.000 11.000,13.552 11.000,13.000 L11.000,8.000 L7.000,8.000 Z"/>
</svg>
