<svg
 xmlns="http://www.w3.org/2000/svg"
 xmlns:xlink="http://www.w3.org/1999/xlink"
 width="16px" height="15px">
<path fill-rule="evenodd" 
 d="M14.000,15.000 L2.000,15.000 C0.895,15.000 -0.000,14.105 -0.000,13.000 L-0.000,11.000 L-0.000,10.000 C-0.000,9.448 0.448,9.000 1.000,9.000 C1.552,9.000 2.000,9.448 2.000,10.000 L2.000,11.000 L2.000,12.000 C2.000,12.552 2.448,13.000 3.000,13.000 L13.000,13.000 C13.552,13.000 14.000,12.552 14.000,12.000 L14.000,11.000 L14.000,10.000 C14.000,9.448 14.448,9.000 15.000,9.000 C15.552,9.000 16.000,9.448 16.000,10.000 L16.000,11.000 L16.000,13.000 C16.000,14.105 15.105,15.000 14.000,15.000 ZM8.801,10.568 C8.619,10.823 8.336,11.000 8.000,11.000 C7.994,11.000 7.990,10.997 7.984,10.997 C7.972,10.997 7.961,11.004 7.949,11.004 C7.683,11.004 7.428,10.898 7.241,10.711 L4.274,7.695 C3.883,7.305 3.883,6.672 4.274,6.281 C4.665,5.890 5.300,5.890 5.691,6.281 L7.000,7.620 L7.000,1.000 C7.000,0.448 7.448,-0.000 8.000,-0.000 C8.552,-0.000 9.000,0.448 9.000,1.000 L9.000,7.544 L10.278,6.273 C10.669,5.882 11.303,5.882 11.695,6.273 C12.086,6.663 12.086,7.296 11.695,7.687 L8.801,10.568 Z"/>
</svg>
