<svg
 xmlns="http://www.w3.org/2000/svg"
 xmlns:xlink="http://www.w3.org/1999/xlink"
 width="16px" height="11px">
<path fill-rule="evenodd"  fill="rgb(61, 60, 66)"
 d="M5.974,10.962 C5.626,10.962 5.300,10.780 5.117,10.478 L3.142,7.007 L0.988,7.007 C0.436,7.007 -0.012,6.559 -0.012,6.006 C-0.012,5.454 0.436,5.007 0.988,5.007 L3.708,5.007 C4.059,5.007 4.384,5.191 4.565,5.491 L5.699,7.564 L7.827,0.980 C7.949,0.604 8.280,0.336 8.672,0.293 C9.063,0.253 9.445,0.443 9.643,0.783 L12.095,4.989 L15.012,4.989 C15.564,4.989 16.012,5.437 16.012,5.989 C16.012,6.541 15.564,6.989 15.012,6.989 L11.520,6.989 C11.164,6.989 10.836,6.800 10.656,6.493 L9.042,3.724 L6.926,10.270 C6.805,10.643 6.478,10.911 6.088,10.956 C6.050,10.960 6.012,10.962 5.974,10.962 Z"/>
</svg>
