<svg
 xmlns="http://www.w3.org/2000/svg"
 xmlns:xlink="http://www.w3.org/1999/xlink"
 width="16px" height="16px">
<path fill-rule="evenodd" 
 d="M16.000,11.500 C16.000,13.433 14.433,15.000 12.500,15.000 L10.620,15.000 C10.621,15.000 10.621,15.000 10.621,15.000 C9.917,15.615 9.008,16.000 8.000,16.000 L4.000,16.000 C1.791,16.000 0.000,14.209 0.000,12.000 C0.000,10.692 0.637,9.541 1.608,8.811 C1.233,7.969 1.000,7.022 1.000,6.000 C1.000,2.686 3.239,0.000 6.000,0.000 C7.262,0.000 8.400,0.579 9.280,1.504 C9.280,1.504 9.280,1.504 9.280,1.504 C9.803,1.190 10.381,1.000 11.000,1.000 C13.209,1.000 15.000,3.239 15.000,6.000 C15.000,6.945 14.778,7.820 14.413,8.574 C15.367,9.199 16.000,10.274 16.000,11.500 ZM2.000,12.000 C2.000,13.105 2.895,14.000 4.000,14.000 L8.000,14.000 C9.105,14.000 10.000,13.105 10.000,12.000 C10.000,11.390 9.722,10.851 9.291,10.484 C8.410,11.416 7.267,12.000 6.000,12.000 C4.733,12.000 3.590,11.416 2.709,10.484 C2.279,10.851 2.000,11.390 2.000,12.000 ZM6.000,2.000 C4.343,2.000 3.000,3.791 3.000,6.000 C3.000,8.209 4.343,10.000 6.000,10.000 C7.657,10.000 9.000,8.209 9.000,6.000 C9.000,3.791 7.657,2.000 6.000,2.000 ZM9.893,2.277 C9.890,2.273 9.888,2.270 9.886,2.266 C9.888,2.270 9.890,2.273 9.893,2.277 ZM11.000,3.000 C10.782,3.000 10.576,3.065 10.380,3.162 C10.763,4.010 11.000,4.967 11.000,6.000 C11.000,6.722 10.879,7.404 10.679,8.041 C10.683,8.027 10.690,8.014 10.694,8.000 L12.481,8.000 C12.800,7.468 13.000,6.772 13.000,6.000 C13.000,4.343 12.105,3.000 11.000,3.000 ZM12.500,10.000 L11.445,10.000 C11.413,9.945 11.367,9.902 11.332,9.849 C11.740,10.472 12.000,11.199 12.000,12.000 C12.000,12.347 11.942,12.679 11.859,13.000 C11.859,13.000 11.859,13.000 11.859,13.000 L12.500,13.000 C13.328,13.000 14.000,12.328 14.000,11.500 C14.000,10.671 13.328,10.000 12.500,10.000 ZM11.023,14.593 C11.034,14.580 11.044,14.567 11.054,14.554 C11.044,14.567 11.034,14.580 11.023,14.593 Z"/>
</svg>
