<svg
 xmlns="http://www.w3.org/2000/svg"
 xmlns:xlink="http://www.w3.org/1999/xlink"
 width="17px" height="16px">
<path fill-rule="evenodd"  
 d="M14.031,16.000 L2.031,16.000 C0.927,16.000 0.031,15.102 0.031,13.995 L0.031,5.005 C0.031,3.897 0.927,3.000 2.031,3.000 L3.031,3.000 L3.031,1.000 C3.031,0.448 3.480,-0.000 4.034,-0.000 L12.028,-0.000 C12.582,-0.000 13.031,0.448 13.031,1.000 L13.031,3.000 L14.031,3.000 C15.136,3.000 16.031,3.897 16.031,5.005 L16.031,13.995 C16.031,15.102 15.136,16.000 14.031,16.000 ZM2.031,12.000 L2.031,12.000 L2.031,12.969 C2.031,13.521 2.479,13.969 3.031,13.969 L3.721,13.969 C3.823,13.985 3.925,14.000 4.031,14.000 L12.031,14.000 C12.137,14.000 12.239,13.985 12.341,13.969 L13.000,13.969 C13.552,13.969 14.000,13.521 14.000,12.969 L14.000,12.310 C14.016,12.208 14.031,12.106 14.031,12.000 L14.031,9.984 L14.000,9.984 L14.000,9.984 L10.031,9.984 L10.031,10.969 L6.031,10.969 L6.031,9.984 L2.031,9.984 L2.031,9.984 L2.031,9.984 L2.031,12.000 ZM9.031,10.000 L9.031,9.000 L7.031,9.000 L7.031,10.000 L9.031,10.000 ZM10.031,2.000 L6.062,2.000 C5.510,2.000 5.062,2.448 5.062,3.000 L11.031,3.000 C11.031,2.448 10.583,2.000 10.031,2.000 ZM14.031,6.969 C14.031,6.862 14.016,6.760 14.000,6.659 L14.000,5.969 C14.000,5.416 13.552,4.969 13.000,4.969 L12.031,4.969 L4.031,4.969 L3.031,4.969 C2.479,4.969 2.031,5.416 2.031,5.969 L2.031,6.969 L2.031,6.969 L2.031,8.984 L2.031,8.984 L2.031,8.984 L6.031,8.984 L6.031,8.000 L10.031,8.000 L10.031,8.984 L14.000,8.984 L14.000,8.984 L14.031,8.984 L14.031,6.969 Z"/>
</svg>
