<svg
 xmlns="http://www.w3.org/2000/svg"
 xmlns:xlink="http://www.w3.org/1999/xlink"
 width="16px" height="16px">
<path fill-rule="evenodd" 
 d="M14.000,16.000 L2.000,16.000 C0.895,16.000 -0.000,15.105 -0.000,14.000 L-0.000,2.000 C-0.000,0.895 0.895,0.000 2.000,0.000 L14.000,0.000 C15.105,0.000 16.000,0.895 16.000,2.000 L16.000,14.000 C16.000,15.105 15.105,16.000 14.000,16.000 ZM14.000,3.000 C14.000,2.448 13.552,2.000 13.000,2.000 L3.000,2.000 C2.448,2.000 2.000,2.448 2.000,3.000 L2.000,5.000 L14.000,5.000 L14.000,3.000 ZM14.000,7.000 L2.000,7.000 L2.000,13.000 C2.000,13.552 2.448,14.000 3.000,14.000 L13.000,14.000 C13.552,14.000 14.000,13.552 14.000,13.000 L14.000,7.000 ZM10.000,8.000 L12.000,8.000 L12.000,13.000 L10.000,13.000 L10.000,8.000 ZM7.000,11.000 L9.000,11.000 L9.000,13.000 L7.000,13.000 L7.000,11.000 ZM7.000,8.000 L9.000,8.000 L9.000,10.000 L7.000,10.000 L7.000,8.000 ZM4.000,11.000 L6.000,11.000 L6.000,13.000 L4.000,13.000 L4.000,11.000 ZM4.000,8.000 L6.000,8.000 L6.000,10.000 L4.000,10.000 L4.000,8.000 Z"/>
</svg>
