<svg
 xmlns="http://www.w3.org/2000/svg"
 xmlns:xlink="http://www.w3.org/1999/xlink"
 width="20px" height="20px">
<path fill-rule="evenodd"  fill="rgb(240, 244, 243)"
 d="M10.000,-0.000 C15.523,-0.000 20.000,4.477 20.000,10.000 C20.000,15.523 15.523,20.000 10.000,20.000 C4.477,20.000 -0.000,15.523 -0.000,10.000 C-0.000,4.477 4.477,-0.000 10.000,-0.000 Z"/>
<path fill-rule="evenodd"  fill="rgb(1, 192, 99)"
 d="M9.855,19.556 C4.494,19.556 0.147,15.216 0.147,9.861 C0.147,4.506 4.494,0.165 9.855,0.165 C15.217,0.165 19.564,4.506 19.564,9.861 C19.564,15.216 15.217,19.556 9.855,19.556 ZM9.855,2.211 C5.625,2.211 2.195,5.637 2.195,9.861 C2.195,14.087 5.625,17.511 9.855,17.511 C14.087,17.511 17.516,14.087 17.516,9.861 C17.516,5.637 14.087,2.211 9.855,2.211 ZM14.175,8.451 L12.179,10.440 C12.168,10.452 12.156,10.462 12.145,10.472 L11.950,10.665 C11.945,10.670 11.941,10.675 11.936,10.680 C11.931,10.685 11.926,10.691 11.921,10.695 L10.183,12.430 C10.178,12.435 10.173,12.441 10.167,12.446 L9.512,13.101 C9.502,13.110 9.494,13.119 9.484,13.127 C9.335,13.253 9.146,13.322 8.951,13.322 C8.748,13.322 8.552,13.248 8.401,13.113 C8.392,13.106 8.383,13.096 8.373,13.086 L8.356,13.070 L6.072,10.788 C5.663,10.353 5.674,9.680 6.097,9.258 C6.306,9.050 6.582,8.935 6.876,8.935 C7.171,8.935 7.447,9.050 7.655,9.258 L8.960,10.561 L12.604,6.920 C12.612,6.912 12.620,6.904 12.628,6.897 C12.828,6.723 13.085,6.627 13.351,6.627 C13.645,6.627 13.922,6.741 14.130,6.949 C14.527,7.346 14.561,7.975 14.210,8.412 C14.199,8.425 14.187,8.439 14.175,8.451 Z"/>
</svg>
