<svg
 xmlns="http://www.w3.org/2000/svg"
 xmlns:xlink="http://www.w3.org/1999/xlink"
 width="16px" height="16px">
<path fill-rule="evenodd"  fill="rgb(61, 60, 66)"
 d="M8.000,16.000 C3.582,16.000 -0.000,12.418 -0.000,8.000 C-0.000,3.582 3.582,-0.000 8.000,-0.000 C12.418,-0.000 16.000,3.582 16.000,8.000 C16.000,12.418 12.418,16.000 8.000,16.000 ZM8.000,2.000 C4.686,2.000 2.000,4.686 2.000,8.000 C2.000,11.314 4.686,14.000 8.000,14.000 C11.314,14.000 14.000,11.314 14.000,8.000 C14.000,4.686 11.314,2.000 8.000,2.000 ZM10.000,8.000 C10.000,8.000 9.000,8.125 9.000,9.000 L7.000,9.000 C7.000,9.000 7.844,7.000 9.000,7.000 C9.000,7.000 9.031,6.000 8.000,6.000 C6.969,6.000 7.000,7.000 7.000,7.000 L5.000,7.000 L5.000,6.000 C5.000,6.000 5.031,4.000 7.000,4.000 C8.969,4.000 9.000,4.000 9.000,4.000 C9.000,4.000 11.000,4.125 11.000,6.000 C11.000,7.875 10.000,8.000 10.000,8.000 ZM9.000,12.000 L7.000,12.000 L7.000,10.000 L9.000,10.000 L9.000,12.000 Z"/>
</svg>
