<svg
 xmlns="http://www.w3.org/2000/svg"
 xmlns:xlink="http://www.w3.org/1999/xlink"
 width="17px" height="15px">
<path fill-rule="evenodd"
 d="M14.027,15.000 L2.035,15.000 C0.928,15.000 0.031,14.029 0.031,12.831 L0.031,3.138 C0.031,1.940 0.928,0.969 2.035,0.969 L14.027,0.969 C15.134,0.969 16.031,1.940 16.031,3.138 L16.031,12.831 C16.031,14.029 15.134,15.000 14.027,15.000 ZM14.031,4.000 C14.031,3.448 13.583,3.000 13.031,3.000 L3.031,3.000 C2.479,3.000 2.031,3.448 2.031,4.000 L2.031,4.969 L14.031,4.969 L14.031,4.000 ZM14.031,7.969 L2.031,7.969 L2.031,12.000 C2.031,12.552 2.479,13.000 3.031,13.000 L13.031,13.000 C13.583,13.000 14.031,12.552 14.031,12.000 L14.031,7.969 Z"/>
</svg>
